<?xml version="1.0" standalone="no"?>
<!DOCTYPE svg PUBLIC "-//W3C//DTD SVG 20010904//EN"
 "http://www.w3.org/TR/2001/REC-SVG-20010904/DTD/svg10.dtd">
<svg version="1.0" xmlns="http://www.w3.org/2000/svg"
 width="640.000000pt" height="640.000000pt" viewBox="0 0 640.000000 640.000000"
 preserveAspectRatio="xMidYMid meet">
<metadata>
Created by potrace 1.16, written by Peter Selinger 2001-2019
</metadata>
<g transform="translate(0.000000,640.000000) scale(0.100000,-0.100000)"
fill="#000000" stroke="none">
<path d="M1744 5530 c-35 -14 -39 -28 -44 -160 l-5 -125 -250 -5 c-223 -5
-256 -8 -307 -27 -165 -62 -283 -196 -323 -365 -22 -92 -22 -2858 -1 -2960 40
-184 175 -330 354 -379 63 -18 127 -19 1222 -19 l1156 0 18 -40 c44 -99 158
-243 261 -329 143 -119 303 -198 480 -237 118 -26 333 -24 447 4 301 74 538
245 691 500 119 197 174 440 148 659 -49 423 -322 768 -721 909 l-65 23 -5
943 c-5 908 -6 945 -25 988 -72 165 -192 273 -350 315 -45 11 -115 15 -287 15
l-228 0 0 123 c-1 128 -5 143 -48 166 -29 15 -56 7 -82 -26 -18 -23 -20 -40
-20 -144 l0 -119 -960 0 -960 0 0 128 c0 110 -3 131 -17 144 -25 22 -54 28
-79 18z m-44 -567 c4 -117 7 -134 25 -147 29 -22 68 -19 93 7 19 20 22 36 24
147 l3 125 958 3 957 2 0 -125 c0 -120 1 -127 25 -150 33 -34 77 -33 104 1 19
24 21 40 21 151 l0 125 238 -4 c231 -4 238 -4 294 -30 80 -37 149 -105 184
-181 l29 -62 3 -302 3 -303 -1856 0 -1856 0 3 308 c3 306 3 307 29 362 47 101
151 182 257 200 26 4 139 7 252 6 l205 -1 5 -132z m2958 -1419 l2 -532 -162
-5 c-135 -4 -179 -9 -257 -31 -398 -112 -699 -437 -776 -840 -19 -100 -19
-287 0 -396 8 -47 15 -91 15 -98 0 -10 -222 -12 -1132 -10 l-1133 3 -57 27
c-76 35 -142 98 -175 167 l-28 56 -3 1098 -2 1097 1852 -2 1853 -3 3 -531z
m72 -697 c347 -88 610 -348 696 -687 27 -105 27 -346 0 -445 -90 -337 -337
-587 -667 -677 -121 -33 -355 -33 -479 0 -274 75 -511 283 -618 544 -79 192
-92 402 -36 613 7 31 35 99 61 152 133 273 393 465 696 514 71 11 280 2 347
-14z"/>
<path d="M2176 3489 c-19 -15 -26 -30 -26 -54 0 -24 7 -39 26 -54 25 -20 39
-21 230 -21 127 0 212 4 227 11 55 25 55 103 1 128 -16 7 -98 11 -228 11 -191
0 -205 -1 -230 -21z"/>
<path d="M2956 3489 c-36 -28 -36 -80 0 -108 25 -20 39 -21 231 -21 163 0 210
3 233 15 52 27 52 93 0 120 -23 12 -72 15 -233 15 -192 0 -206 -1 -231 -21z"/>
<path d="M3735 3485 c-14 -13 -25 -36 -25 -50 0 -14 11 -37 25 -50 24 -25 24
-25 240 -25 216 0 216 0 240 25 39 38 30 86 -22 113 -14 8 -90 12 -228 12
-205 0 -206 0 -230 -25z"/>
<path d="M1423 2923 c-54 -10 -71 -88 -26 -123 26 -20 36 -21 246 -18 205 3
220 4 233 23 30 41 29 66 -5 97 l-31 28 -198 -1 c-108 -1 -207 -4 -219 -6z"/>
<path d="M2200 2923 c-49 -19 -68 -84 -34 -117 25 -25 48 -27 268 -24 l207 3
19 25 c27 34 25 62 -6 91 -25 24 -29 24 -232 26 -114 1 -214 -1 -222 -4z"/>
<path d="M2983 2923 c-28 -5 -53 -39 -53 -71 0 -12 11 -34 25 -48 l25 -25 221
3 220 3 19 25 c34 44 20 89 -35 110 -26 10 -369 12 -422 3z"/>
<path d="M1392 2324 c-33 -23 -30 -76 5 -104 26 -20 35 -21 246 -18 216 3 219
3 238 27 24 30 24 52 -2 85 l-20 26 -223 0 c-184 0 -225 -3 -244 -16z"/>
<path d="M2170 2320 c-20 -20 -26 -65 -12 -86 19 -29 55 -34 266 -34 l215 0
21 27 c16 20 20 36 16 57 -11 53 -21 55 -263 56 -210 0 -224 -1 -243 -20z"/>
<path d="M4467 2732 c-15 -17 -17 -55 -17 -344 l0 -325 -25 -23 c-69 -65 -51
-181 35 -225 54 -28 114 -17 163 29 l28 26 208 0 c189 0 209 2 224 18 23 25
21 74 -3 100 -20 21 -28 22 -229 22 l-207 0 -27 28 -27 28 0 325 c0 303 -1
327 -18 342 -25 23 -85 22 -105 -1z"/>
</g>
</svg>
