<?xml version="1.0" standalone="no"?>
<!DOCTYPE svg PUBLIC "-//W3C//DTD SVG 20010904//EN"
 "http://www.w3.org/TR/2001/REC-SVG-20010904/DTD/svg10.dtd">
<svg version="1.0" xmlns="http://www.w3.org/2000/svg"
 width="512.000000pt" height="512.000000pt" viewBox="0 0 512.000000 512.000000"
 preserveAspectRatio="xMidYMid meet">
<metadata>
Created by potrace 1.16, written by Peter Selinger 2001-2019
</metadata>
<g transform="translate(0.000000,512.000000) scale(0.100000,-0.100000)"
fill="#000000" stroke="none">
<path d="M983 3901 c-104 -38 -180 -107 -231 -211 -24 -49 -27 -68 -31 -177
-1 -68 -5 -123 -7 -123 -3 0 -24 10 -47 22 -36 20 -57 23 -147 23 -92 0 -112
-3 -160 -26 -67 -31 -132 -95 -168 -164 -24 -45 -27 -61 -27 -155 l0 -105 168
-535 c93 -294 179 -553 192 -575 57 -98 183 -183 287 -193 47 -4 49 -6 44 -31
-3 -14 -17 -94 -31 -177 -45 -271 -43 -274 133 -274 79 0 123 4 134 13 9 6 84
114 167 240 l151 227 1150 0 1150 0 151 -227 c83 -126 158 -234 167 -240 11
-9 55 -13 134 -13 176 0 178 3 133 274 -14 83 -28 163 -31 177 -5 25 -3 27 44
31 104 10 230 95 287 193 13 22 99 281 192 575 l168 535 0 100 c0 87 -3 107
-26 155 -33 70 -99 136 -169 169 -48 23 -68 26 -160 26 -90 0 -111 -3 -147
-23 -23 -12 -44 -22 -47 -22 -2 0 -6 55 -7 123 -4 111 -7 127 -33 182 -38 77
-114 153 -191 191 l-60 29 -1540 2 c-1482 2 -1542 2 -1592 -16z m3102 -164
c54 -24 103 -73 129 -127 18 -40 21 -67 24 -260 l3 -215 -66 -215 c-36 -118
-68 -220 -70 -227 -2 -7 -18 2 -39 22 -19 18 -57 43 -83 56 l-48 24 -595 3
c-651 3 -647 3 -732 -55 l-49 -34 -36 27 c-19 15 -57 35 -84 45 -46 18 -88 19
-639 19 -566 0 -591 -1 -643 -20 -30 -11 -73 -38 -96 -59 -24 -22 -44 -34 -46
-28 -2 7 -34 109 -70 227 l-66 215 3 215 c4 238 10 265 71 328 39 41 75 61
130 72 23 4 699 7 1502 7 1383 -2 1462 -3 1500 -20z m-3493 -477 c21 0 89 -76
102 -113 9 -23 70 -220 136 -437 138 -451 137 -448 161 -460 24 -13 3114 -13
3138 0 24 12 23 9 161 460 147 481 142 469 185 510 116 112 315 29 315 -133 0
-34 -46 -194 -155 -545 -85 -273 -162 -517 -171 -541 -22 -58 -65 -105 -122
-133 l-47 -23 -1735 0 -1735 0 -47 23 c-57 28 -100 75 -122 133 -9 24 -86 268
-171 541 -162 520 -170 557 -139 624 35 74 127 120 204 102 19 -4 38 -8 42 -8z
m1752 -630 c81 -18 122 -71 132 -168 l7 -62 -683 0 -683 0 7 62 c9 94 52 150
127 168 47 11 1045 12 1093 0z m1520 0 c81 -18 122 -71 132 -168 l7 -62 -683
0 -683 0 7 62 c9 94 52 150 127 168 47 11 1045 12 1093 0z m-2670 -962 c-33
-56 -206 -309 -209 -306 -2 2 8 75 22 161 l26 157 84 0 c65 0 82 -3 77 -12z
m2919 -145 c14 -86 24 -159 22 -161 -3 -3 -176 250 -209 306 -5 9 12 12 77 12
l84 0 26 -157z"/>
<path d="M1360 3280 l0 -80 80 0 80 0 0 80 0 80 -80 0 -80 0 0 -80z"/>
<path d="M1920 3280 l0 -80 80 0 80 0 0 80 0 80 -80 0 -80 0 0 -80z"/>
<path d="M2480 3280 l0 -80 80 0 80 0 0 80 0 80 -80 0 -80 0 0 -80z"/>
<path d="M3040 3280 l0 -80 80 0 80 0 0 80 0 80 -80 0 -80 0 0 -80z"/>
<path d="M3600 3280 l0 -80 80 0 80 0 0 80 0 80 -80 0 -80 0 0 -80z"/>
</g>
</svg>
