<?xml version="1.0" standalone="no"?>
<!DOCTYPE svg PUBLIC "-//W3C//DTD SVG 20010904//EN"
 "http://www.w3.org/TR/2001/REC-SVG-20010904/DTD/svg10.dtd">
<svg version="1.0" xmlns="http://www.w3.org/2000/svg"
 width="640.000000pt" height="640.000000pt" viewBox="0 0 640.000000 640.000000"
 preserveAspectRatio="xMidYMid meet">
<metadata>
Created by potrace 1.16, written by Peter Selinger 2001-2019
</metadata>
<g transform="translate(0.000000,640.000000) scale(0.100000,-0.100000)"
fill="#000000" stroke="none">
<path d="M1285 5828 c-11 -13 -18 -29 -17 -35 2 -7 -2 -13 -8 -13 -6 0 -10
-57 -10 -166 l0 -167 -78 -81 c-90 -94 -92 -99 -92 -257 0 -102 -1 -109 -22
-120 -13 -7 -29 -20 -36 -31 -7 -10 -18 -18 -24 -18 -5 0 -22 -12 -38 -27 -15
-16 -36 -35 -46 -43 -243 -198 -292 -253 -329 -369 -11 -33 -22 -61 -25 -61
-3 0 -6 -36 -8 -80 -3 -67 2 -100 28 -190 17 -61 42 -139 55 -175 14 -36 25
-74 25 -85 0 -11 3 -20 8 -20 10 0 46 -128 47 -170 1 -19 -11 -68 -25 -110
-15 -41 -25 -81 -23 -87 3 -7 0 -13 -5 -13 -5 0 -9 -11 -9 -24 0 -13 -10 -48
-21 -77 -11 -30 -23 -70 -26 -89 -3 -19 -12 -57 -21 -85 -8 -27 -15 -60 -15
-72 0 -13 -4 -23 -10 -23 -6 0 -10 -278 -10 -775 1 -496 4 -775 10 -775 6 0
10 -6 10 -12 0 -33 62 -139 111 -190 51 -53 169 -125 183 -111 3 4 6 1 6 -5 0
-6 6 -9 14 -6 8 3 17 1 20 -5 9 -14 706 -15 707 -1 0 5 0 44 0 85 0 41 0 80 0
85 -1 7 -110 11 -328 10 -181 0 -335 1 -343 3 -86 21 -163 89 -191 169 -17 49
-18 98 -18 723 1 369 5 699 10 735 5 36 9 72 10 80 1 8 5 20 10 26 5 5 11 30
14 54 5 43 19 94 36 135 5 11 10 32 13 46 2 14 16 62 30 107 14 45 28 96 31
113 3 17 12 47 20 66 10 23 12 41 6 52 -9 17 -90 251 -96 281 -2 8 -21 62 -41
120 -84 237 -42 349 201 535 14 11 39 32 55 47 16 14 60 51 98 82 l69 56 420
0 419 0 42 -37 c23 -21 55 -49 73 -63 34 -28 75 -62 102 -85 24 -21 28 -20 62
21 17 20 40 47 53 61 12 13 22 27 22 32 0 4 -21 25 -47 47 -26 21 -59 51 -74
67 -15 15 -32 27 -37 27 -6 0 -17 8 -24 18 -7 11 -23 24 -35 31 -22 11 -23 18
-23 119 0 150 -8 172 -97 263 l-75 77 1 155 c2 147 1 157 -23 198 l-24 44
-314 3 -313 3 -20 -23z m498 -241 l2 -87 -170 0 -170 0 2 87 c1 49 3 89 3 91
0 1 75 1 166 0 l166 -3 1 -88z m125 -331 l62 -64 0 -66 0 -66 -355 0 -355 0 0
68 0 69 64 61 64 62 230 0 229 0 61 -64z"/>
<path d="M4123 5835 c-12 -9 -27 -32 -33 -53 -11 -40 -14 -240 -4 -289 10 -49
45 -82 95 -88 63 -8 193 -52 220 -76 12 -10 25 -19 29 -19 17 0 8 -96 -16
-172 -31 -97 -66 -153 -141 -224 l-54 -52 46 -70 c48 -72 56 -76 94 -46 19 16
98 93 116 114 21 25 77 129 100 187 l22 54 14 -46 c22 -74 52 -90 171 -90 l98
0 0 -128 c0 -121 -21 -247 -40 -247 -4 0 -7 -11 -7 -24 0 -20 -21 -97 -40
-146 -3 -8 -8 -26 -10 -40 -2 -14 -8 -27 -14 -28 -5 -2 -7 -8 -4 -12 3 -5 -6
-38 -19 -74 -14 -36 -23 -66 -19 -66 3 0 0 -7 -7 -15 -7 -9 -10 -18 -7 -21 3
-3 -7 -43 -23 -88 -15 -46 -31 -101 -34 -122 l-7 -40 58 -18 c32 -10 65 -21
73 -25 23 -11 49 -2 48 17 -1 9 7 44 17 77 10 33 19 62 19 65 1 3 5 10 9 17 4
6 9 25 11 41 2 16 15 63 29 103 31 89 107 350 107 367 0 7 5 12 10 12 6 0 10
8 8 18 -3 16 13 17 190 20 l192 2 10 -26 c6 -14 7 -30 4 -35 -3 -6 0 -16 6
-24 7 -8 10 -21 7 -29 -3 -7 -2 -17 3 -22 4 -5 10 -30 13 -56 3 -26 17 -107
31 -180 69 -369 80 -425 82 -448 1 -14 3 -27 3 -30 1 -3 1 -486 1 -1073 0
-1035 -1 -1069 -20 -1105 -32 -63 -97 -120 -140 -124 -3 0 -16 -5 -30 -10 -14
-6 -85 -9 -157 -9 l-133 2 0 -97 0 -96 171 4 c94 2 173 8 177 13 4 6 15 11 24
13 90 15 262 192 274 282 1 8 7 40 13 71 17 83 8 2224 -9 2224 -1 0 -3 11 -5
25 -2 14 -6 36 -9 50 -2 14 -7 39 -10 55 -3 17 -11 61 -20 99 -8 38 -12 75 -9
83 3 7 0 20 -7 28 -6 8 -9 19 -5 25 3 5 3 16 -2 23 -4 6 -9 21 -10 32 -1 11
-11 65 -21 120 -11 55 -18 104 -15 108 3 4 0 14 -6 20 -5 7 -10 22 -10 32 0
11 -5 38 -11 60 -6 22 -13 110 -14 195 l-4 155 75 -4 c91 -4 145 10 173 46 18
23 21 39 19 107 -2 45 -6 88 -10 96 -4 8 -20 51 -34 95 -52 157 -143 288 -265
378 -30 23 -61 47 -68 54 -7 7 -18 13 -23 13 -5 0 -27 11 -48 25 -22 13 -50
26 -63 29 -13 2 -43 13 -68 23 -41 16 -90 18 -590 21 -481 2 -548 1 -567 -13z
m1102 -187 c189 -61 319 -174 401 -348 11 -25 19 -51 17 -57 -3 -7 1 -13 7
-13 7 0 10 -6 7 -14 -3 -8 -3 -17 1 -20 3 -4 7 -15 9 -26 3 -20 -3 -20 -448
-18 l-451 3 -21 51 c-28 64 -82 137 -146 197 -49 46 -147 114 -172 119 -8 2
-16 6 -19 9 -3 3 -36 14 -75 26 -38 11 -69 23 -67 27 1 3 2 27 2 52 l0 46 438
-4 437 -4 80 -26z m185 -768 l0 -90 -175 0 -175 0 0 85 0 85 173 3 c94 1 173
4 175 5 1 1 2 -38 2 -88z"/>
<path d="M2810 5317 c0 -5 -5 -5 -11 -2 -18 12 -75 -36 -103 -86 -26 -48 -27
-50 -26 -231 0 -101 1 -189 0 -196 0 -9 -15 -12 -53 -11 -57 2 -91 -11 -107
-41 -6 -10 -10 -92 -10 -189 0 -183 3 -170 -55 -235 -11 -13 -33 -40 -50 -60
-16 -21 -38 -47 -49 -59 -10 -12 -39 -49 -64 -82 -26 -33 -50 -61 -54 -63 -4
-2 -8 -8 -8 -13 0 -4 -27 -49 -60 -98 -84 -125 -183 -305 -237 -430 -25 -58
-50 -115 -56 -126 -6 -11 -12 -28 -14 -38 -2 -9 -15 -45 -29 -79 -14 -34 -27
-69 -29 -77 -2 -9 -15 -56 -29 -106 -32 -113 -82 -359 -91 -445 -3 -36 -8 -83
-10 -105 -7 -61 -18 -275 -17 -320 5 -234 54 -562 117 -780 53 -182 63 -212
117 -331 10 -22 18 -44 18 -48 0 -4 27 -62 60 -129 33 -67 60 -128 60 -135 0
-6 4 -12 8 -12 5 0 15 -12 23 -27 26 -51 99 -167 119 -190 l20 -23 1102 0
c1064 1 1104 1 1126 19 12 11 22 23 22 28 0 5 8 16 18 25 9 8 25 26 35 39 10
13 52 67 93 119 104 132 109 138 152 200 125 182 217 366 287 581 27 79 50
151 53 159 3 8 4 21 3 28 -1 6 3 12 10 12 6 0 9 8 6 20 -3 11 -1 23 5 26 5 3
7 12 4 19 -2 7 -1 30 4 51 56 255 58 572 6 821 -8 37 -12 71 -9 76 2 4 -1 14
-7 22 -6 8 -9 19 -6 24 4 5 2 12 -4 16 -6 4 -8 10 -5 15 3 5 1 17 -4 27 -5 10
-26 72 -47 138 -45 144 -87 239 -186 425 -36 68 -160 249 -219 321 -85 104
-227 245 -329 327 -52 42 -99 83 -103 90 -4 6 -14 12 -20 12 -7 0 -20 8 -29
18 -23 25 -56 51 -152 122 l-86 64 0 169 c0 96 -4 177 -10 187 -16 30 -50 43
-107 41 -38 -1 -53 2 -53 11 -1 7 0 95 0 196 1 181 0 183 -26 231 -28 50 -85
98 -103 86 -6 -3 -11 -3 -11 2 0 4 -178 8 -395 8 -217 0 -395 -4 -395 -8z
m745 -349 l0 -173 -350 0 -350 0 -3 164 c-2 90 -1 169 1 175 3 8 103 10 353 9
l349 -3 0 -172z m175 -443 l0 -85 -442 -2 -443 -3 0 -85 0 -85 478 -3 c306 -1
477 -6 477 -12 0 -6 7 -10 15 -10 8 0 15 -4 15 -9 0 -4 19 -21 43 -37 23 -16
44 -31 47 -34 3 -3 28 -23 55 -45 28 -22 56 -44 62 -50 7 -5 24 -19 38 -30
119 -92 154 -123 270 -240 113 -112 148 -151 185 -205 8 -13 21 -28 28 -36 6
-7 12 -17 12 -23 0 -6 5 -11 10 -11 6 0 16 -12 22 -27 7 -16 19 -37 28 -48 10
-11 26 -36 36 -55 10 -19 22 -37 25 -40 18 -14 136 -274 143 -311 1 -8 7 -24
14 -35 22 -40 73 -239 94 -369 28 -173 30 -468 5 -635 -24 -157 -38 -220 -50
-220 -5 0 -7 -7 -4 -15 7 -17 -51 -208 -64 -213 -5 -2 -9 -14 -9 -26 0 -49
-197 -411 -272 -502 -7 -8 -18 -20 -23 -27 -6 -7 -46 -58 -90 -114 -44 -57
-83 -103 -87 -103 -5 0 -8 -6 -8 -13 0 -7 -9 -20 -20 -30 -19 -16 -88 -17
-1019 -17 -550 0 -1006 3 -1015 6 -9 3 -16 10 -16 14 0 5 -25 49 -55 99 -30
50 -55 93 -55 96 0 3 -16 38 -36 78 -44 87 -104 227 -104 242 0 5 -6 22 -14
37 -20 38 -40 100 -38 121 0 9 -3 17 -8 17 -5 0 -8 8 -8 18 1 9 -9 45 -20 79
-12 34 -19 69 -16 77 3 9 1 16 -6 16 -7 0 -9 8 -5 19 3 11 1 22 -4 25 -6 4 -8
13 -4 21 3 9 1 21 -5 28 -13 16 -42 226 -48 347 -12 254 -5 467 22 630 8 52
15 102 16 110 0 8 5 20 10 27 5 7 7 17 3 23 -4 6 -2 16 3 23 5 7 10 26 10 42
1 17 12 63 26 104 14 40 23 77 20 82 -3 5 0 9 6 9 6 0 8 4 5 10 -3 5 8 41 25
81 16 39 30 77 30 84 0 20 86 208 152 335 52 98 179 304 198 320 3 3 42 52 87
110 89 115 134 170 174 210 38 37 49 88 49 228 l0 122 525 0 525 0 0 -85z"/>
<path d="M4020 3501 c-51 -16 -116 -51 -144 -77 -16 -15 -41 -55 -57 -88 -23
-50 -28 -73 -26 -126 2 -76 15 -104 115 -246 92 -131 195 -350 206 -437 3 -18
5 -32 6 -32 1 0 3 -11 5 -25 2 -14 8 -54 14 -90 15 -90 15 -259 1 -350 -6 -41
-13 -84 -14 -95 -2 -11 -9 -44 -16 -73 -27 -113 16 -254 90 -295 19 -11 38
-24 41 -29 12 -19 140 -29 201 -15 15 3 37 15 50 26 12 12 28 21 35 21 21 0
77 100 105 190 56 174 71 285 70 515 -1 203 -4 264 -15 282 -3 5 -8 32 -12 60
-3 29 -17 87 -31 130 -14 43 -28 87 -30 98 -16 84 -197 416 -267 490 -10 11
-25 32 -33 47 -7 14 -28 37 -46 49 -18 13 -36 27 -40 33 -9 14 -118 46 -153
45 -16 0 -41 -4 -55 -8z m125 -201 c19 -15 120 -157 154 -215 68 -115 137
-262 146 -312 2 -10 4 -18 5 -18 1 0 3 -7 5 -15 1 -8 13 -47 25 -87 12 -40 19
-77 16 -82 -4 -5 -2 -13 4 -16 6 -4 8 -15 5 -26 -4 -10 -3 -24 2 -31 10 -16
11 -34 12 -213 1 -159 -7 -268 -23 -293 -4 -7 -5 -16 -2 -21 3 -5 -4 -40 -15
-78 -12 -37 -23 -81 -25 -96 -5 -38 -20 -64 -47 -78 -27 -15 -77 -20 -77 -8 0
5 -7 9 -15 9 -20 0 -31 28 -29 75 2 22 3 42 4 45 2 3 2 9 1 14 -1 4 5 31 13
60 20 68 36 202 36 298 0 78 -21 245 -39 305 -5 17 -7 34 -4 37 3 3 1 12 -5
19 -7 8 -9 16 -6 19 3 3 -8 37 -24 74 -16 38 -27 75 -25 82 3 6 0 12 -6 12 -6
0 -10 3 -9 8 4 16 -90 184 -168 301 -48 71 -84 134 -84 149 0 31 28 77 54 91
26 13 101 8 121 -9z"/>
<path d="M2930 3279 c-19 -4 -57 -11 -84 -14 -27 -3 -54 -9 -60 -13 -6 -3 -17
-7 -24 -8 -8 -2 -30 -10 -50 -20 -20 -9 -43 -17 -49 -17 -7 0 -13 -5 -13 -10
0 -6 -3 -7 -6 -4 -6 5 -90 -37 -104 -53 -10 -10 -69 -50 -76 -50 -3 0 -37 -30
-74 -66 -38 -36 -78 -72 -89 -81 -12 -8 -21 -20 -21 -26 0 -7 -10 -24 -22 -38
-30 -33 -40 -49 -85 -139 -21 -41 -42 -78 -48 -82 -5 -4 -6 -8 -1 -8 5 0 3 -7
-4 -15 -7 -8 -10 -15 -7 -15 3 0 -1 -16 -9 -35 -30 -73 -45 -170 -46 -295 0
-69 1 -127 2 -130 1 -3 3 -25 5 -50 6 -69 75 -267 115 -330 5 -8 18 -31 29
-50 10 -19 27 -45 38 -57 10 -12 29 -36 43 -54 23 -29 65 -71 130 -131 14 -13
33 -26 42 -30 10 -4 18 -11 18 -17 0 -5 16 -17 37 -26 20 -10 56 -30 80 -45
24 -15 83 -40 131 -55 48 -15 94 -30 102 -33 8 -3 18 -6 23 -7 4 -2 10 -4 15
-5 36 -14 334 -21 349 -8 7 5 17 7 23 3 6 -4 17 -1 25 5 8 6 19 9 25 5 6 -4
16 -2 23 3 7 5 45 19 86 31 78 24 238 102 257 127 6 8 15 14 20 14 5 0 50 42
99 93 172 176 173 177 145 303 -11 52 -18 99 -15 104 3 5 1 12 -5 15 -6 4 -8
15 -5 25 3 10 1 21 -4 24 -5 4 -17 39 -26 79 -23 100 -98 323 -140 414 -19 42
-35 79 -35 83 0 3 -30 62 -67 129 -81 146 -79 143 -120 203 -18 26 -33 51 -33
56 0 6 -4 12 -9 14 -5 2 -36 37 -69 78 -92 114 -174 198 -205 209 -33 13 -206
13 -257 0z m257 -247 c37 -44 79 -94 93 -112 14 -17 31 -38 38 -46 53 -56 262
-450 262 -494 0 -11 5 -20 12 -20 6 0 9 -3 5 -6 -3 -3 3 -26 14 -51 10 -24 21
-59 25 -76 3 -17 9 -36 13 -42 12 -14 63 -207 56 -213 -3 -3 -1 -10 4 -16 5
-6 16 -49 25 -95 19 -96 27 -78 -83 -188 -61 -62 -167 -140 -183 -135 -5 1 -8
-3 -8 -10 0 -6 -3 -9 -6 -6 -3 4 -34 -7 -69 -23 -35 -17 -76 -32 -92 -33 -15
-2 -28 -5 -28 -6 0 -2 -15 -5 -85 -16 -82 -12 -222 -7 -261 10 -9 4 -20 6 -25
5 -5 -1 -11 -1 -14 1 -3 1 -17 3 -32 5 -15 2 -56 17 -91 34 -36 17 -69 31 -73
31 -10 0 -107 64 -143 95 -73 61 -101 89 -101 99 0 6 -9 17 -20 24 -11 7 -20
17 -20 23 0 5 -8 18 -17 29 -29 30 -89 159 -113 239 -61 202 -37 436 62 619
23 43 54 93 69 112 48 59 147 160 157 160 6 0 12 4 14 8 13 33 235 137 316
149 20 3 62 8 92 13 133 18 131 19 207 -68z"/>
<path d="M1535 4704 c-56 -13 -141 -28 -147 -26 -5 1 -8 -3 -8 -9 0 -6 -6 -9
-13 -6 -7 2 -28 -4 -47 -14 -19 -10 -46 -24 -60 -30 -38 -19 -133 -119 -154
-162 -29 -63 -30 -143 -1 -202 41 -83 44 -87 133 -160 24 -19 50 -35 57 -35 7
0 37 -11 67 -25 29 -13 61 -22 71 -19 9 3 17 1 17 -5 0 -6 10 -11 23 -10 12 0
74 0 137 0 102 -1 165 3 165 8 0 1 14 4 30 5 17 2 49 13 72 25 23 11 49 21 57
21 12 0 60 34 111 79 88 77 122 212 77 313 -24 55 -113 149 -159 167 -18 8
-33 16 -33 20 0 8 -58 30 -98 37 -15 3 -43 9 -62 15 -40 11 -205 20 -235 13z
m255 -207 c61 -20 95 -39 135 -76 28 -25 35 -39 35 -70 0 -23 -8 -48 -19 -63
-20 -25 -105 -76 -137 -81 -10 -1 -26 -7 -34 -12 -22 -15 -263 -17 -297 -3
-15 6 -36 13 -46 15 -54 10 -136 67 -152 106 -32 76 42 148 197 192 65 18 251
13 318 -8z"/>
<path d="M950 3276 c-47 -26 -48 -46 -49 -596 -1 -449 4 -574 23 -665 11 -51
19 -75 25 -75 4 0 14 -12 22 -27 8 -16 19 -33 24 -39 6 -6 19 -23 30 -38 11
-15 40 -39 65 -53 25 -14 47 -30 50 -34 3 -4 32 -17 65 -29 46 -17 91 -23 193
-27 l133 -6 -3 94 -3 94 -125 5 c-116 5 -129 7 -180 36 -65 37 -114 102 -123
165 -6 40 -15 989 -10 989 2 0 33 -12 70 -26 38 -14 75 -27 83 -29 8 -2 17 -4
20 -5 3 -1 8 -2 13 -1 4 0 7 -3 7 -9 0 -5 9 -10 20 -10 11 0 58 -16 106 -36
47 -19 93 -34 101 -32 9 2 26 35 43 85 l28 82 -52 17 c-28 9 -54 22 -58 28 -4
6 -8 8 -8 4 0 -8 -80 18 -119 38 -13 7 -28 11 -33 8 -4 -3 -8 0 -8 6 0 7 -7
10 -15 6 -8 -3 -15 -1 -15 5 0 6 -4 8 -8 5 -4 -2 -39 9 -77 25 -39 16 -83 32
-99 35 -16 2 -37 9 -47 14 -25 14 -59 12 -89 -4z"/>
</g>
</svg>
